<?xml version="1.0" encoding="iso-8859-1"?>
<!-- Generator: Adobe Illustrator 19.0.0, SVG Export Plug-In . SVG Version: 6.00 Build 0)  -->
<svg version="1.1" id="Layer_1" xmlns="http://www.w3.org/2000/svg" xmlns:xlink="http://www.w3.org/1999/xlink" x="0px" y="0px"
	 viewBox="0 0 512 512" style="enable-background:new 0 0 512 512;" xml:space="preserve">
<path style="fill:#AB91EA;" d="M0,256.006C0,397.402,114.606,512.004,255.996,512C397.394,512.004,512,397.402,512,256.006
	C512.009,114.61,397.394,0,255.996,0C114.606,0,0,114.614,0,256.006z"/>
<path style="fill:#947ADB;" d="M511.177,275.628L319.389,83.84l-0.002-0.001l-1.667-1.667c-0.733-0.734-1.61-1.319-2.58-1.726
	c-0.969-0.405-2.014-0.623-3.084-0.623H183.927c-4.422,0-8.007,3.586-8.007,8.009v24.025h-24.025c-4.422,0-8.007,3.585-8.007,8.007
	v24.025h-24.025c-4.422,0-8.007,3.585-8.007,8.007v272.272c0,2.644,1.366,4.875,3.341,6.334
	c0.478,0.647,71.089,71.258,71.735,71.735c0.105,0.143,0.255,0.235,0.367,0.367c21.87,6.079,44.889,9.397,68.695,9.396
	C390.784,512.004,501.146,407.842,511.177,275.628z"/>
<path style="fill:#F4F6F9;" d="M399.521,164.829c-0.406-0.972-0.992-1.849-1.726-2.581l-80.075-80.075
	c-0.733-0.734-1.61-1.319-2.581-1.726c-0.969-0.404-2.014-0.623-3.083-0.623H183.928c-4.422,0-8.007,3.586-8.007,8.007v24.023
	h-24.025c-4.422,0-8.007,3.586-8.007,8.007v24.025h-24.025c-4.422,0-8.009,3.586-8.009,8.007v272.272
	c0,4.422,3.586,8.009,8.009,8.009h208.208c4.422,0,8.009-3.586,8.009-8.009v-24.023h24.023c4.422,0,8.009-3.586,8.009-8.009v-24.023
	h24.023c4.422,0,8.007-3.586,8.007-8.009V167.91C400.144,166.843,399.926,165.797,399.521,164.829z M320.064,107.164l52.74,52.74
	h-52.74V107.164z M320.064,416.16H127.872V159.904h16.016v232.231c0,4.422,3.586,8.009,8.007,8.009h168.169V416.16z
	 M352.096,384.128H159.904V127.872h16.016v232.231c0,4.422,3.586,8.009,8.007,8.009h168.169V384.128z M191.936,352.096V95.84
	h112.112v72.071c0,4.422,3.586,8.009,8.009,8.009h72.073v176.176H191.936z"/>
<g>
</g>
<g>
</g>
<g>
</g>
<g>
</g>
<g>
</g>
<g>
</g>
<g>
</g>
<g>
</g>
<g>
</g>
<g>
</g>
<g>
</g>
<g>
</g>
<g>
</g>
<g>
</g>
<g>
</g>
</svg>
