<?xml version="1.0" encoding="iso-8859-1"?>
<!-- Generator: Adobe Illustrator 19.0.0, SVG Export Plug-In . SVG Version: 6.00 Build 0)  -->
<svg version="1.1" id="Capa_1" xmlns="http://www.w3.org/2000/svg" xmlns:xlink="http://www.w3.org/1999/xlink" x="0px" y="0px"
	 viewBox="0 0 468.293 468.293" style="enable-background:new 0 0 468.293 468.293;" xml:space="preserve">
<path style="fill:#44C4A1;" d="M355.851,343.783c-14.128-9.769-29.715-17.148-45.97-22.694c-9.718-3.318-24.52-10.182-39.108-23.897
	l-21.513,17.537c7.397,12.092,13.4,28.602,13.596,50.601c0,0,5.981,96.629,67.873,102.65c30.731,2.99,58.912-15.75,66.296-45.728
	C402.325,400.73,397.086,372.293,355.851,343.783z M370.875,414.65c-2.756,13.023-13.987,23.428-27.95,25.891
	c-2.883,0.508-5.818,0.662-8.72,0.452c-18.616-1.345-29.629-20.207-36.008-38.972c-5.016-14.756-0.443-30.738,11.006-41.314
	c0.055-0.054,0.11-0.104,0.165-0.154c4.882-4.521,12.142-5.494,18.001-2.342c5.003,2.694,9.681,5.579,14.085,8.682
	C364.286,382.96,374.183,399.029,370.875,414.65z"/>
<path style="fill:#E1E6E9;" d="M249.03,269.932c-16.399-27.493-32.922-54.913-51.48-80.998L63.132,0l-2.953,0.521l10.259,58.185
	c0,0,62.048,123.901,117.29,193.35c12.133,15.254,26.449,28.555,41.854,40.496c5.688,4.409,13.213,11.614,19.677,22.178
	l21.513-17.537C263.224,290.093,255.731,281.166,249.03,269.932z"/>
<path style="fill:#44C4A1;" d="M71.269,422.253c7.384,29.978,35.565,48.718,66.296,45.728c61.891-6.022,67.873-102.65,67.873-102.65
	c0.195-22,6.198-38.509,13.596-50.601l-21.513-17.537c-14.588,13.716-29.39,20.579-39.108,23.897
	c-16.255,5.546-31.842,12.924-45.97,22.694C71.206,372.293,65.968,400.73,71.269,422.253z M126.838,366.893
	c4.404-3.102,9.082-5.988,14.085-8.682c5.858-3.153,13.119-2.179,18.001,2.342c0.055,0.05,0.11,0.1,0.165,0.154
	c11.449,10.576,16.022,26.558,11.006,41.314c-6.379,18.766-17.393,37.628-36.008,38.972c-2.902,0.21-5.837,0.056-8.72-0.452
	c-13.963-2.462-25.194-12.868-27.95-25.891C94.109,399.029,104.007,382.96,126.838,366.893z"/>
<path style="fill:#E1E6E9;" d="M219.262,269.932c16.399-27.493,32.922-54.913,51.48-80.998L405.161,0l2.953,0.521l-10.259,58.185
	c0,0-62.048,123.901-117.29,193.35c-12.133,15.254-26.449,28.555-41.854,40.496c-5.688,4.409-13.213,11.614-19.677,22.178
	l-21.513-17.537C205.069,290.093,212.562,281.166,219.262,269.932z"/>
<circle style="fill:#64798A;" cx="236.519" cy="272.234" r="10.927"/>
<g>
</g>
<g>
</g>
<g>
</g>
<g>
</g>
<g>
</g>
<g>
</g>
<g>
</g>
<g>
</g>
<g>
</g>
<g>
</g>
<g>
</g>
<g>
</g>
<g>
</g>
<g>
</g>
<g>
</g>
</svg>
