<svg height="480pt" viewBox="0 0 480 480" width="480pt" xmlns="http://www.w3.org/2000/svg"><path d="m240 8c-128.128906 0-232 103.871094-232 232s103.871094 232 232 232 232-103.871094 232-232-103.871094-232-232-232zm120 376h-240v-264h72v24h96v-24h72zm0 0" fill="#78b9eb"/><path d="m152 176h32v32h-32zm0 0" fill="#78b9eb"/><path d="m152 240h32v32h-32zm0 0" fill="#78b9eb"/><path d="m152 304h32v32h-32zm0 0" fill="#78b9eb"/><g fill="#006df0"><path d="m240 0c-132.546875 0-240 107.453125-240 240s107.453125 240 240 240 240-107.453125 240-240c-.148438-132.484375-107.515625-239.851562-240-240zm0 464c-123.710938 0-224-100.289062-224-224s100.289062-224 224-224 224 100.289062 224 224c-.140625 123.652344-100.347656 223.859375-224 224zm0 0"/><path d="m360 112h-64v-16c0-4.417969-3.582031-8-8-8h-96c-4.417969 0-8 3.582031-8 8v16h-64c-4.417969 0-8 3.582031-8 8v264c0 4.417969 3.582031 8 8 8h240c4.417969 0 8-3.582031 8-8v-264c0-4.417969-3.582031-8-8-8zm-160-8h80v32h-80zm152 272h-224v-248h56v16c0 4.417969 3.582031 8 8 8h96c4.417969 0 8-3.582031 8-8v-16h56zm0 0"/><path d="m184 168h-32c-4.417969 0-8 3.582031-8 8v32c0 4.417969 3.582031 8 8 8h32c4.417969 0 8-3.582031 8-8v-32c0-4.417969-3.582031-8-8-8zm-8 32h-16v-16h16zm0 0"/><path d="m208 184h128v16h-128zm0 0"/><path d="m184 232h-32c-4.417969 0-8 3.582031-8 8v32c0 4.417969 3.582031 8 8 8h32c4.417969 0 8-3.582031 8-8v-32c0-4.417969-3.582031-8-8-8zm-8 32h-16v-16h16zm0 0"/><path d="m208 248h128v16h-128zm0 0"/><path d="m184 296h-32c-4.417969 0-8 3.582031-8 8v32c0 4.417969 3.582031 8 8 8h32c4.417969 0 8-3.582031 8-8v-32c0-4.417969-3.582031-8-8-8zm-8 32h-16v-16h16zm0 0"/><path d="m208 312h128v16h-128zm0 0"/></g></svg>