<svg height="512pt" viewBox="0 0 512 512" width="512pt" xmlns="http://www.w3.org/2000/svg"><g fill="#d7dee2"><path d="m0 0h32v32h-32zm0 0"/><path d="m80 0h32v32h-32zm0 0"/><path d="m160 0h32v32h-32zm0 0"/><path d="m240 0h32v32h-32zm0 0"/><path d="m320 0h32v32h-32zm0 0"/><path d="m400 0h32v32h-32zm0 0"/><path d="m480 0h32v32h-32zm0 0"/><path d="m0 480h32v32h-32zm0 0"/><path d="m80 480h32v32h-32zm0 0"/><path d="m160 480h32v32h-32zm0 0"/><path d="m240 480h32v32h-32zm0 0"/><path d="m320 480h32v32h-32zm0 0"/><path d="m400 480h32v32h-32zm0 0"/><path d="m0 400h32v32h-32zm0 0"/><path d="m0 320h32v32h-32zm0 0"/><path d="m0 240h32v32h-32zm0 0"/><path d="m0 160h32v32h-32zm0 0"/><path d="m0 80h32v32h-32zm0 0"/><path d="m480 400h32v32h-32zm0 0"/><path d="m480 320h32v32h-32zm0 0"/><path d="m480 240h32v32h-32zm0 0"/><path d="m480 160h32v32h-32zm0 0"/><path d="m480 80h32v32h-32zm0 0"/><path d="m480 480h32v32h-32zm0 0"/></g><path d="m384 416h-256c-17.679688 0-32-14.320312-32-32v-256c0-17.679688 14.320312-32 32-32h256c17.679688 0 32 14.320312 32 32v256c0 17.679688-14.320312 32-32 32zm0 0" fill="#48c8ef"/><path d="m240 240h32v32h-32zm0 0" fill="#fff"/></svg>